<svg width="24" height="24" viewBox="0 0 24 24" fill="none" xmlns="http://www.w3.org/2000/svg">
	<g filter="url(#filter0_d_153_175)">
		<g filter="url(#filter1_d_153_175)">
			<rect x="2.34375" y="2.34375" width="19.3125" height="19.3125" rx="4.3125" fill="#202020" />
		</g>
		<rect
			x="2.92969"
			y="2.92969"
			width="18.1406"
			height="18.1406"
			rx="3.72656"
			fill="url(#paint0_linear_153_175)"
		/>
		<g clip-path="url(#clip0_153_175)">
			<path
				d="M6.4967 4.3053H17.5033C18.7136 4.3053 19.6947 5.28642 19.6947 6.4967V17.5033C19.6947 18.7136 18.7136 19.6947 17.5033 19.6947H6.4967C5.28642 19.6947 4.3053 18.7136 4.3053 17.5033V6.4967C4.3053 5.28642 5.28642 4.3053 6.4967 4.3053Z"
				fill="url(#paint1_linear_153_175)"
				fill-opacity="0.3"
				stroke="black"
				stroke-width="0.0234375"
			/>
			<path d="M6.97522 6.30469H6.3047V6.9752H6.97522V6.30469Z" fill="white" />
			<path d="M7.64574 6.9752L6.97522 6.9752L6.97522 7.64572H7.64574V6.9752Z" fill="white" />
			<path d="M8.31626 7.64572L7.64574 7.64572L7.64574 8.31624H8.31626V7.64572Z" fill="white" />
			<path d="M8.98678 8.31624L8.31626 8.31624L8.31626 8.98675H8.98678V8.31624Z" fill="white" />
			<path d="M9.6573 8.98675L8.98678 8.98675L8.98678 9.65727H9.6573V8.98675Z" fill="white" />
			<path d="M8.98678 9.65727L8.31626 9.65727V10.3224H8.98678L8.98678 9.65727Z" fill="white" />
			<path d="M8.31626 10.3278H7.64574V10.9983H8.31626V10.3278Z" fill="white" />
			<path d="M7.64574 10.9983L6.97522 10.9983V11.6688H7.64574L7.64574 10.9983Z" fill="white" />
			<path d="M6.97522 11.6688H6.30469V12.2975H6.97521L6.97522 11.6688Z" fill="white" />
			<path d="M13.0099 11.6688H9.6573V12.3393H13.0099V11.6688Z" fill="white" />
			<path
				d="M19.7109 4.95959H4.28906V5.63011H19.7109V4.95959Z"
				fill="black"
				fill-opacity="0.25"
			/>
			<path
				d="M19.7109 6.30066H4.28906V6.97118H19.7109V6.30066Z"
				fill="black"
				fill-opacity="0.25"
			/>
			<path
				d="M19.7109 7.64172H4.28906V8.31224H19.7109V7.64172Z"
				fill="black"
				fill-opacity="0.25"
			/>
			<path d="M19.7109 8.98279H4.28906V9.6533H19.7109V8.98279Z" fill="black" fill-opacity="0.25" />
			<path
				d="M19.7109 10.3237H4.28906V10.9942H19.7109V10.3237Z"
				fill="black"
				fill-opacity="0.25"
			/>
			<path
				d="M19.7109 11.6648H4.28906V12.3353H19.7109V11.6648Z"
				fill="black"
				fill-opacity="0.25"
			/>
			<path
				d="M19.7109 13.0059H4.28906V13.6764H19.7109V13.0059Z"
				fill="black"
				fill-opacity="0.25"
			/>
			<path
				d="M19.7109 14.3468H4.28906V15.0173H19.7109V14.3468Z"
				fill="black"
				fill-opacity="0.25"
			/>
			<path
				d="M19.7109 15.6879H4.28906V16.3584H19.7109V15.6879Z"
				fill="black"
				fill-opacity="0.25"
			/>
			<path
				d="M19.7109 17.0289H4.28906V17.6994H19.7109V17.0289Z"
				fill="black"
				fill-opacity="0.25"
			/>
			<path
				d="M19.7109 18.3699H4.28906V19.0404H19.7109V18.3699Z"
				fill="black"
				fill-opacity="0.25"
			/>
		</g>
	</g>
	<defs>
		<filter
			id="filter0_d_153_175"
			x="-0.09375"
			y="0"
			width="24.1875"
			height="24.1875"
			filterUnits="userSpaceOnUse"
			color-interpolation-filters="sRGB"
		>
			<feFlood flood-opacity="0" result="BackgroundImageFix" />
			<feColorMatrix
				in="SourceAlpha"
				type="matrix"
				values="0 0 0 0 0 0 0 0 0 0 0 0 0 0 0 0 0 0 127 0"
				result="hardAlpha"
			/>
			<feOffset dy="0.09375" />
			<feGaussianBlur stdDeviation="0.046875" />
			<feComposite in2="hardAlpha" operator="out" />
			<feColorMatrix type="matrix" values="0 0 0 0 0 0 0 0 0 0 0 0 0 0 0 0 0 0 0.25 0" />
			<feBlend mode="normal" in2="BackgroundImageFix" result="effect1_dropShadow_153_175" />
			<feBlend mode="normal" in="SourceGraphic" in2="effect1_dropShadow_153_175" result="shape" />
		</filter>
		<filter
			id="filter1_d_153_175"
			x="1.82812"
			y="2.08594"
			width="20.3438"
			height="20.3438"
			filterUnits="userSpaceOnUse"
			color-interpolation-filters="sRGB"
		>
			<feFlood flood-opacity="0" result="BackgroundImageFix" />
			<feColorMatrix
				in="SourceAlpha"
				type="matrix"
				values="0 0 0 0 0 0 0 0 0 0 0 0 0 0 0 0 0 0 127 0"
				result="hardAlpha"
			/>
			<feOffset dy="0.257812" />
			<feGaussianBlur stdDeviation="0.257812" />
			<feComposite in2="hardAlpha" operator="out" />
			<feColorMatrix type="matrix" values="0 0 0 0 0 0 0 0 0 0 0 0 0 0 0 0 0 0 0.28 0" />
			<feBlend mode="normal" in2="BackgroundImageFix" result="effect1_dropShadow_153_175" />
			<feBlend mode="normal" in="SourceGraphic" in2="effect1_dropShadow_153_175" result="shape" />
		</filter>
		<linearGradient
			id="paint0_linear_153_175"
			x1="12"
			y1="2.92969"
			x2="12"
			y2="21.0703"
			gradientUnits="userSpaceOnUse"
		>
			<stop stop-color="#1A1A1A" />
			<stop offset="0.5" stop-color="#1A1A1A" stop-opacity="0.9" />
			<stop offset="1" stop-color="#1A1A1A" stop-opacity="0.8" />
		</linearGradient>
		<linearGradient
			id="paint1_linear_153_175"
			x1="4.92888"
			y1="6.77441"
			x2="18.6924"
			y2="13.6129"
			gradientUnits="userSpaceOnUse"
		>
			<stop stop-color="#0084FF" />
			<stop offset="0.411874" stop-color="#FF8AC7" />
			<stop offset="1" stop-color="#FEBA75" />
		</linearGradient>
		<clipPath id="clip0_153_175">
			<rect x="4.28906" y="4.28906" width="15.4219" height="15.4219" rx="2.36719" fill="white" />
		</clipPath>
	</defs>
</svg>
