<svg width="520" height="272" viewBox="0 0 520 272" fill="none" xmlns="http://www.w3.org/2000/svg">
<g filter="url(#filter0_b_11_1015)">
<rect width="520" height="272" rx="20" fill="url(#paint0_linear_11_1015)" fill-opacity="0.16"/>
<rect x="0.5" y="0.5" width="519" height="271" rx="19.5" stroke="url(#paint1_linear_11_1015)"/>
<rect x="20" y="209" width="132" height="43" rx="14" fill="#ED5959"/>
<rect x="20.5" y="209.5" width="131" height="42" rx="13.5" stroke="white" stroke-opacity="0.17"/>
<path d="M67.0455 236H63.2784V224.364H67.1648C68.3049 224.364 69.2841 224.597 70.1023 225.062C70.9205 225.525 71.5473 226.189 71.983 227.057C72.4223 227.92 72.642 228.956 72.642 230.165C72.642 231.377 72.4205 232.419 71.9773 233.29C71.5379 234.161 70.9015 234.831 70.0682 235.301C69.2348 235.767 68.2273 236 67.0455 236ZM65.0341 234.466H66.9489C67.8352 234.466 68.572 234.299 69.1591 233.966C69.7462 233.629 70.1856 233.142 70.4773 232.506C70.7689 231.866 70.9148 231.085 70.9148 230.165C70.9148 229.252 70.7689 228.477 70.4773 227.841C70.1894 227.205 69.7595 226.722 69.1875 226.392C68.6155 226.062 67.9053 225.898 67.0568 225.898H65.0341V234.466ZM77.9503 236.176C77.0904 236.176 76.3499 235.992 75.7287 235.625C75.1113 235.254 74.634 234.733 74.2969 234.062C73.9635 233.388 73.7969 232.598 73.7969 231.693C73.7969 230.799 73.9635 230.011 74.2969 229.33C74.634 228.648 75.1037 228.116 75.706 227.733C76.312 227.35 77.0204 227.159 77.831 227.159C78.3234 227.159 78.8007 227.241 79.2628 227.403C79.7249 227.566 80.1397 227.822 80.5071 228.17C80.8745 228.519 81.1643 228.972 81.3764 229.528C81.5885 230.081 81.6946 230.754 81.6946 231.545V232.148H74.7571V230.875H80.0298C80.0298 230.428 79.9389 230.032 79.7571 229.688C79.5753 229.339 79.3196 229.064 78.9901 228.864C78.6643 228.663 78.2817 228.562 77.8423 228.562C77.3651 228.562 76.9484 228.68 76.5923 228.915C76.2401 229.146 75.9673 229.449 75.7741 229.824C75.5848 230.195 75.4901 230.598 75.4901 231.034V232.028C75.4901 232.612 75.5923 233.108 75.7969 233.517C76.0052 233.926 76.295 234.239 76.6662 234.455C77.0374 234.667 77.4711 234.773 77.9673 234.773C78.2893 234.773 78.5829 234.727 78.848 234.636C79.1132 234.542 79.3423 234.402 79.5355 234.216C79.7287 234.03 79.8764 233.801 79.9787 233.528L81.5866 233.818C81.4579 234.292 81.2268 234.706 80.8935 235.062C80.5639 235.415 80.1491 235.689 79.6491 235.886C79.1529 236.08 78.5866 236.176 77.9503 236.176ZM84.7784 224.364V236H83.0795V224.364H84.7784ZM90.3253 236.176C89.4654 236.176 88.7249 235.992 88.1037 235.625C87.4863 235.254 87.009 234.733 86.6719 234.062C86.3385 233.388 86.1719 232.598 86.1719 231.693C86.1719 230.799 86.3385 230.011 86.6719 229.33C87.009 228.648 87.4787 228.116 88.081 227.733C88.687 227.35 89.3954 227.159 90.206 227.159C90.6984 227.159 91.1757 227.241 91.6378 227.403C92.0999 227.566 92.5147 227.822 92.8821 228.17C93.2495 228.519 93.5393 228.972 93.7514 229.528C93.9635 230.081 94.0696 230.754 94.0696 231.545V232.148H87.1321V230.875H92.4048C92.4048 230.428 92.3139 230.032 92.1321 229.688C91.9503 229.339 91.6946 229.064 91.3651 228.864C91.0393 228.663 90.6567 228.562 90.2173 228.562C89.7401 228.562 89.3234 228.68 88.9673 228.915C88.6151 229.146 88.3423 229.449 88.1491 229.824C87.9598 230.195 87.8651 230.598 87.8651 231.034V232.028C87.8651 232.612 87.9673 233.108 88.1719 233.517C88.3802 233.926 88.67 234.239 89.0412 234.455C89.4124 234.667 89.8461 234.773 90.3423 234.773C90.6643 234.773 90.9579 234.727 91.223 234.636C91.4882 234.542 91.7173 234.402 91.9105 234.216C92.1037 234.03 92.2514 233.801 92.3537 233.528L93.9616 233.818C93.8329 234.292 93.6018 234.706 93.2685 235.062C92.9389 235.415 92.5241 235.689 92.0241 235.886C91.5279 236.08 90.9616 236.176 90.3253 236.176ZM99.5284 227.273V228.636H94.7614V227.273H99.5284ZM96.0398 225.182H97.7386V233.438C97.7386 233.767 97.7879 234.015 97.8864 234.182C97.9848 234.345 98.1117 234.456 98.267 234.517C98.4261 234.574 98.5985 234.602 98.7841 234.602C98.9205 234.602 99.0398 234.593 99.142 234.574C99.2443 234.555 99.3239 234.54 99.3807 234.528L99.6875 235.932C99.589 235.97 99.4489 236.008 99.267 236.045C99.0852 236.087 98.858 236.11 98.5852 236.114C98.1383 236.121 97.7216 236.042 97.3352 235.875C96.9489 235.708 96.6364 235.451 96.3977 235.102C96.1591 234.754 96.0398 234.316 96.0398 233.79V225.182ZM104.575 236.176C103.715 236.176 102.975 235.992 102.354 235.625C101.736 235.254 101.259 234.733 100.922 234.062C100.589 233.388 100.422 232.598 100.422 231.693C100.422 230.799 100.589 230.011 100.922 229.33C101.259 228.648 101.729 228.116 102.331 227.733C102.937 227.35 103.645 227.159 104.456 227.159C104.948 227.159 105.426 227.241 105.888 227.403C106.35 227.566 106.765 227.822 107.132 228.17C107.5 228.519 107.789 228.972 108.001 229.528C108.214 230.081 108.32 230.754 108.32 231.545V232.148H101.382V230.875H106.655C106.655 230.428 106.564 230.032 106.382 229.688C106.2 229.339 105.945 229.064 105.615 228.864C105.289 228.663 104.907 228.562 104.467 228.562C103.99 228.562 103.573 228.68 103.217 228.915C102.865 229.146 102.592 229.449 102.399 229.824C102.21 230.195 102.115 230.598 102.115 231.034V232.028C102.115 232.612 102.217 233.108 102.422 233.517C102.63 233.926 102.92 234.239 103.291 234.455C103.662 234.667 104.096 234.773 104.592 234.773C104.914 234.773 105.208 234.727 105.473 234.636C105.738 234.542 105.967 234.402 106.161 234.216C106.354 234.03 106.501 233.801 106.604 233.528L108.212 233.818C108.083 234.292 107.852 234.706 107.518 235.062C107.189 235.415 106.774 235.689 106.274 235.886C105.778 236.08 105.212 236.176 104.575 236.176Z" fill="white"/>
<path opacity="0.4" d="M45.6216 20.7188C50.2768 20.7187 53.9333 20.7187 56.788 21.1025C59.7133 21.4958 62.0344 22.3183 63.8581 24.1419C65.6818 25.9656 66.5041 28.2867 66.8975 31.212C67.2812 34.0668 67.2812 37.7232 67.2812 42.3784V42.6216C67.2812 47.2768 67.2812 50.9333 66.8975 53.788C66.5041 56.7133 65.6818 59.0344 63.8581 60.8581C62.0344 62.6818 59.7133 63.5041 56.788 63.8975C53.9333 64.2812 50.2768 64.2812 45.6216 64.2812H45.3784C40.7232 64.2812 37.0668 64.2812 34.212 63.8975C31.2867 63.5041 28.9656 62.6818 27.1419 60.8581C25.3183 59.0344 24.4958 56.7133 24.1025 53.788C23.7187 50.9333 23.7187 47.2768 23.7188 42.6216V42.3784C23.7187 37.7233 23.7187 34.0668 24.1025 31.212C24.4958 28.2867 25.3183 25.9656 27.1419 24.1419C28.9656 22.3183 31.2867 21.4958 34.212 21.1025C37.0668 20.7187 40.7233 20.7187 45.3784 20.7188H45.6216Z" fill="#B98123"/>
<path fill-rule="evenodd" clip-rule="evenodd" d="M44.824 39.3705C45.3489 39.4411 46.0752 39.63 46.6915 40.2463C47.3077 40.8625 47.4967 41.5886 47.5672 42.1137C47.6256 42.5485 47.6252 43.0542 47.625 43.4788C47.625 43.5073 47.625 43.5351 47.625 43.5625V52.0625C47.625 53.2362 46.6736 54.1875 45.5 54.1875C44.3264 54.1875 43.375 53.2362 43.375 52.0625V43.5625C42.2014 43.5625 41.25 42.6112 41.25 41.4375C41.25 40.2639 42.2014 39.3125 43.375 39.3125C43.4024 39.3125 43.4305 39.3125 43.4587 39.3125C43.8835 39.3123 44.3891 39.3119 44.824 39.3705Z" fill="#B98123"/>
<path fill-rule="evenodd" clip-rule="evenodd" d="M43.3748 32.9375C43.3748 31.7639 44.3219 30.8125 45.4903 30.8125H45.5094C46.6777 30.8125 47.6248 31.7639 47.6248 32.9375C47.6248 34.1111 46.6777 35.0625 45.5094 35.0625H45.4903C44.3219 35.0625 43.3748 34.1111 43.3748 32.9375Z" fill="#B98123"/>
<rect x="23" y="79" width="473" height="15" rx="7.5" fill="#CAD1E9"/>
<rect x="23" y="102" width="473" height="15" rx="7.5" fill="#CAD1E9"/>
<rect opacity="0.6" x="23" y="125" width="378" height="15" rx="7.5" fill="#CAD1E9"/>
<rect opacity="0.3" x="23" y="148" width="308" height="15" rx="7.5" fill="#CAD1E9"/>
<rect opacity="0.3" x="23" y="171" width="261" height="15" rx="7.5" fill="#CAD1E9"/>
</g>
<defs>
<filter id="filter0_b_11_1015" x="-11.7" y="-11.7" width="543.4" height="295.4" filterUnits="userSpaceOnUse" color-interpolation-filters="sRGB">
<feFlood flood-opacity="0" result="BackgroundImageFix"/>
<feGaussianBlur in="BackgroundImageFix" stdDeviation="5.85"/>
<feComposite in2="SourceAlpha" operator="in" result="effect1_backgroundBlur_11_1015"/>
<feBlend mode="normal" in="SourceGraphic" in2="effect1_backgroundBlur_11_1015" result="shape"/>
</filter>
<linearGradient id="paint0_linear_11_1015" x1="260" y1="-1.82238e-05" x2="579.049" y2="272.459" gradientUnits="userSpaceOnUse">
<stop stop-color="#1B1C36"/>
<stop offset="1" stop-color="#70717A"/>
</linearGradient>
<linearGradient id="paint1_linear_11_1015" x1="520" y1="255.415" x2="-13.7786" y2="101.832" gradientUnits="userSpaceOnUse">
<stop stop-color="white" stop-opacity="0.07"/>
<stop offset="1" stop-color="white" stop-opacity="0.15"/>
</linearGradient>
</defs>
</svg>
